<svg width="40" height="40" viewBox="0 0 40 40" xmlns="http://www.w3.org/2000/svg">
<path d="M37.2023 11.3562C37.4427 10.575 37.2023 10 36.0458 10H32.2188C31.2442 10 30.7959 10.4937 30.5555 11.0437C30.5555 11.0437 28.6063 15.6125 25.8514 18.575C24.9612 19.4312 24.5519 19.7063 24.0646 19.7063C23.8242 19.7063 23.4538 19.4312 23.4538 18.65V11.3562C23.4538 10.4187 23.1809 10 22.3753 10H16.3587C15.7479 10 15.3841 10.4375 15.3841 10.8438C15.3841 11.7313 16.7615 11.9375 16.9044 14.4375V19.8625C16.9044 21.05 16.6835 21.2687 16.1962 21.2687C14.8967 21.2687 11.739 16.6813 9.86776 11.4313C9.49091 10.4125 9.12055 10 8.13945 10H4.31248C3.22091 10 3 10.4937 3 11.0437C3 12.0187 4.29948 16.8625 9.04908 23.2625C12.2133 27.6313 16.6705 30 20.7249 30C23.1614 30 23.4603 29.475 23.4603 28.5688C23.4603 24.3938 23.2394 24 24.4609 24C25.0262 24 26.0008 24.275 28.2749 26.3813C30.8739 28.8813 31.3027 30 32.7581 30H36.5851C37.6766 30 38.2289 29.475 37.9105 28.4375C37.1828 26.2563 32.2643 21.7688 32.0434 21.4688C31.4781 20.7688 31.6406 20.4563 32.0434 19.8313C32.0499 19.825 36.7215 13.5 37.2023 11.3562Z" fill="currentColor"/>
</svg>
