<svg width="76" height="24" viewBox="0 0 76 24" xmlns="http://www.w3.org/2000/svg">
<g clip-path="url(#clip0_2523_5951)">
<path d="M57.8694 22.9119C60.857 22.2876 63.4791 20.1685 66.0734 18.5788C68.9044 16.8532 71.679 15.0388 74.4398 13.1924C75.7252 12.3306 76.1359 10.0487 74.484 9.29063C71.7223 7.94344 68.9269 6.65694 66.0944 5.49344C63.4503 4.38665 60.5596 2.72817 57.6487 3.05972C57.5072 3.06922 57.371 3.11863 57.2553 3.20245C57.1397 3.28627 57.049 3.4012 56.9936 3.53438C56.9382 3.66756 56.9201 3.81376 56.9414 3.95664C56.9627 4.09952 57.0226 4.23346 57.1143 4.34349C58.8884 6.41975 61.7529 7.2648 64.1297 8.50593C64.6518 8.76754 65.1397 9.09763 65.6156 9.36462C55.552 9.55557 45.4843 9.63177 35.4124 9.59324C29.5749 9.57881 23.7366 9.53311 17.8973 9.45613C12.5959 9.38912 6.54422 8.59566 1.46097 10.3516C1.16146 10.4575 0.901389 10.6556 0.7167 10.9185C0.532011 11.1814 0.431825 11.4961 0.429989 11.8192C0.428152 12.1423 0.524756 12.4578 0.706449 12.722C0.888141 12.9863 1.14595 13.1863 1.44425 13.2944C6.44453 15.3055 12.5742 14.76 17.8735 14.866C23.7157 14.9847 29.5544 15.0721 35.3897 15.128C43.7448 15.2067 52.0912 15.1601 60.4359 15.1445C58.5726 15.9315 56.853 17.0347 55.3501 18.4073C53.4506 20.3222 55.3383 23.4429 57.8694 22.9119Z" fill="currentColor"/>
</g>
<defs>
<clipPath id="clip0_2523_5951">
<rect width="75" height="20" fill="white" transform="matrix(0.99863 0.052336 -0.0524341 0.998624 1.04883 0)"/>
</clipPath>
</defs>
</svg>
