<svg width="32" height="32" viewBox="0 0 32 32" xmlns="http://www.w3.org/2000/svg">
<path fill-rule="evenodd" clip-rule="evenodd" d="M25.3333 13.4545C25.3333 16.886 22.958 20.4017 20.0641 23.3176C18.6717 24.7205 17.2702 25.8734 16.2139 26.6764C16.1408 26.7319 16.0695 26.7857 16 26.8377C15.9306 26.7857 15.8592 26.7319 15.7861 26.6764C14.7298 25.8734 13.3283 24.7205 11.9359 23.3176C9.04197 20.4017 6.66667 16.886 6.66667 13.4545C6.66667 11.0917 7.65 8.82565 9.40034 7.15487C11.1507 5.48409 13.5246 4.54545 16 4.54545C18.4754 4.54545 20.8493 5.48409 22.5997 7.15487C24.35 8.82565 25.3333 11.0917 25.3333 13.4545ZM28 13.4545C28 22.3636 16 30 16 30C16 30 4 22.3636 4 13.4545C4 10.4166 5.26428 7.5031 7.51472 5.35496C9.76516 3.20681 12.8174 2 16 2C19.1826 2 22.2348 3.20681 24.4853 5.35496C26.7357 7.5031 28 10.4166 28 13.4545ZM17.3333 13.4545C17.3333 14.1575 16.7364 14.7273 16 14.7273C15.2636 14.7273 14.6667 14.1575 14.6667 13.4545C14.6667 12.7516 15.2636 12.1818 16 12.1818C16.7364 12.1818 17.3333 12.7516 17.3333 13.4545ZM16 17.2727C18.2091 17.2727 20 15.5633 20 13.4545C20 11.3458 18.2091 9.63636 16 9.63636C13.7909 9.63636 12 11.3458 12 13.4545C12 15.5633 13.7909 17.2727 16 17.2727Z" fill="currentColor"/>
</svg>
